<?xml version="1.0" standalone="no"?>
<!DOCTYPE svg PUBLIC "-//W3C//DTD SVG 20010904//EN"
 "http://www.w3.org/TR/2001/REC-SVG-20010904/DTD/svg10.dtd">
<svg version="1.0" xmlns="http://www.w3.org/2000/svg"
 width="128.000000pt" height="128.000000pt" viewBox="0 0 128.000000 128.000000"
 preserveAspectRatio="xMidYMid meet">
<metadata>
Created by potrace 1.14, written by Peter Selinger 2001-2017
</metadata>
<g transform="translate(0.000000,128.000000) scale(0.100000,-0.100000)"
fill="#000000" stroke="none">
<path d="M190 1272 c0 -4 20 -28 45 -52 25 -24 45 -47 45 -51 0 -4 -25 -19
-55 -33 -70 -35 -139 -111 -183 -205 -31 -65 -36 -86 -39 -160 -3 -99 22 -186
74 -262 45 -64 83 -96 220 -186 24 -16 42 -35 40 -43 -1 -8 -22 -20 -47 -27
-24 -7 -49 -21 -55 -30 -23 -40 -44 -108 -50 -164 l-7 -59 551 0 551 0 0 640
0 640 -545 0 c-300 0 -545 -4 -545 -8z m233 -1032 c3 -11 1 -20 -4 -20 -5 0
-9 9 -9 20 0 11 2 20 4 20 2 0 6 -9 9 -20z"/>
</g>
</svg>
